<?xml version="1.0" encoding="UTF-8" standalone="no"?>
<!-- Created with Inkscape (http://www.inkscape.org/) -->

<svg
   id="svg1971"
   version="1.1"
   viewBox="0 0 23.56723 54.774834"
   height="54.774834mm"
   width="23.56723mm"
   sodipodi:docname="thermometer.svg"
   inkscape:version="1.1 (c68e22c387, 2021-05-23)"
   xmlns:inkscape="http://www.inkscape.org/namespaces/inkscape"
   xmlns:sodipodi="http://sodipodi.sourceforge.net/DTD/sodipodi-0.dtd"
   xmlns="http://www.w3.org/2000/svg"
   xmlns:svg="http://www.w3.org/2000/svg">
  <defs
     id="defs7313">
    <mask
       maskUnits="userSpaceOnUse"
       id="mask2715">
      <path
         id="path2717"
         style="display:inline;fill:#fffffe;fill-opacity:1;stroke:#ffffff;stroke-width:0.499999;stroke-miterlimit:4;stroke-dasharray:none;stroke-opacity:0.613054"
         d="M 14.36543,70.110088 V 35.589189 c 0,-1.4634 -1.1375,-1.7965 -2.5353,-1.7965 -1.3988,0 -2.62913,0.425998 -2.62913,1.889599 v 34.4278 z"
         sodipodi:nodetypes="cssscc" />
    </mask>
  </defs>
  <sodipodi:namedview
     id="namedview7311"
     pagecolor="#ffffff"
     bordercolor="#666666"
     borderopacity="1.0"
     inkscape:pageshadow="2"
     inkscape:pageopacity="0.0"
     inkscape:pagecheckerboard="0"
     inkscape:document-units="mm"
     showgrid="false"
     inkscape:zoom="4.2169229"
     inkscape:cx="30.709596"
     inkscape:cy="132.44254"
     inkscape:window-width="2560"
     inkscape:window-height="1377"
     inkscape:window-x="2552"
     inkscape:window-y="-8"
     inkscape:window-maximized="1"
     inkscape:current-layer="g4989" />
  <g
     id="layer4"
     style="display:inline">
    <g
       id="g4989">
      <path
         id="path-7_11_"
         style="fill:#fbb713"
         d="M 5.44033 12.1222 L 5.44033 33.1965 C 2.07668 35.2573 -2.831e-05 38.9167 -2.831e-05 43.1014 C -2.831e-05 49.5482 5.28449 54.7748 11.8403 54.7748 C 18.394 54.7748 23.5669 49.5482 23.5669 43.1014 C 23.5669 38.9715 21.3807 35.3502 18.0892 33.2758 L 18.0892 6.37065 C 18.0892 2.85249 15.2569 1.6865e-05 11.7641 1.6865e-05 C 8.2711 1.6865e-05 5.44033 2.85249 5.44033 6.37065 L 5.44033 7.33293 Z" />
      <path
         id="path-8_11_"
         style="opacity:0.35;fill:#010101;enable-background:new"
         d="M 18.0892 33.2756 L 18.0892 6.37065 C 18.0892 2.85275 15.2569 1.6865e-05 11.7641 1.6865e-05 C 11.2969 1.6865e-05 10.8428 0.0550501 10.4044 0.151623 C 13.2434 0.778685 15.3704 3.32318 15.3704 6.37065 L 15.3704 33.2758 C 18.6613 35.3502 20.8478 38.9715 20.8478 43.1014 C 20.8478 49.095 16.3745 54.0273 10.4796 54.6925 C 10.9265 54.7422 11.3792 54.7748 11.8403 54.7748 C 18.394 54.7748 23.5672 49.5482 23.5672 43.1014 C 23.5672 38.9715 21.3807 35.3499 18.0892 33.2756 Z" />
      <path
         id="path-9_10_"
         style="fill:#ff3a2f"
         d="m 14.3658,40.372598 0,-34.5208996 c 0,-1.4634 -1.1375,-1.7965 -2.5353,-1.7965 -1.3988,0 -2.62913,0.426 -2.62913,1.8896 l 0,34.4277996 z"
         sodipodi:nodetypes="cssscc"
         mask="url(#mask2715)" />
      <path
         id="path-9_10_-5"
         style="display:inline;fill:#ff3a2f"
         d="M 14.3658 35.7296 C 13.2869 35.0763 11.1 34.5477 9.20137 35.7296 C 6.4931 36.7596 4.56747 39.353 4.56747 42.3986 C 4.56747 46.3468 7.79829 49.5474 11.7834 49.5474 C 15.7689 49.5474 18.9997 46.3468 18.9997 42.3986 C 18.9997 39.353 17.0738 36.7596 14.3658 35.7296 Z" />
      <path
         id="path-10_9_"
         style="opacity:0.35;fill:#020403;enable-background:new"
         d="M 14.3655 35.7296 L 14.3655 25.7413 C 14.3655 24.2779 13.2283 23.9448 11.8305 23.9448 C 11.5297 23.9448 11.2403 23.9696 10.9656 24.0154 C 11.8943 24.1718 12.5526 24.6295 12.5526 25.7413 L 12.5526 35.7296 C 15.2609 36.7596 17.1868 39.353 17.1868 42.3989 C 17.1868 46.0417 14.4335 49.0423 10.877 49.4852 C 11.1746 49.522 11.4757 49.5474 11.7834 49.5474 C 15.7689 49.5474 18.9997 46.3468 18.9997 42.3989 C 18.9997 39.353 17.0738 36.7596 14.3655 35.7296 Z" />
      <path
         id="path-11_9_"
         style="fill:#ffffff"
         d="M 10.6121 44.3092 C 10.6121 45.1776 9.90199 45.8806 9.02569 45.8806 C 8.14966 45.8806 7.43952 45.1776 7.43952 44.3092 C 7.43952 43.4411 8.14966 42.7378 9.02569 42.7378 C 9.90199 42.7378 10.6121 43.4411 10.6121 44.3092 Z" />
      <path
         id="path-12_9_"
         style="fill:#ffffff"
         d="M 11.7575 34.6001 C 11.226 34.6001 10.7947 34.173 10.7947 33.6465 L 10.7947 7.0448 C 10.7947 6.51802 11.226 6.09072 11.7575 6.09072 C 12.2893 6.09072 12.7203 6.51802 12.7203 7.0448 L 12.7203 33.6468 C 12.7203 34.173 12.2893 34.6001 11.7575 34.6001 Z" />
    </g>
  </g>
</svg>
