<?xml version="1.0" standalone="no"?>
<!DOCTYPE svg PUBLIC "-//W3C//DTD SVG 20010904//EN"
 "http://www.w3.org/TR/2001/REC-SVG-20010904/DTD/svg10.dtd">
<svg version="1.0" xmlns="http://www.w3.org/2000/svg"
 width="512.000000pt" height="512.000000pt" viewBox="0 0 512.000000 512.000000"
 preserveAspectRatio="xMidYMid meet">
<metadata>
Created by potrace 1.14, written by Peter Selinger 2001-2017
</metadata>
<g transform="translate(0.000000,512.000000) scale(0.100000,-0.100000)"
fill="#000000" stroke="none">
<path d="M918 5109 c-21 -5 -70 -25 -110 -45 -284 -142 -479 -410 -534 -731
-41 -238 8 -499 157 -839 l22 -51 -80 -79 c-199 -197 -320 -427 -358 -681 -54
-356 48 -658 365 -1082 205 -274 490 -545 885 -841 464 -347 973 -586 1467
-689 242 -50 400 -64 673 -58 394 8 712 74 1090 224 327 129 445 221 445 343
0 76 -65 162 -159 209 -118 61 -290 84 -583 79 l-227 -3 -66 82 c-139 174
-353 318 -690 464 l-110 48 -8 43 c-69 365 -195 740 -357 1065 -152 306 -317
541 -530 754 -140 141 -240 221 -374 301 -231 139 -528 177 -794 102 -51 -15
-95 -24 -98 -22 -8 9 -71 231 -85 303 -8 39 -14 122 -13 185 0 177 36 251 168
344 34 24 88 57 122 74 107 54 163 140 164 250 0 135 -68 210 -222 247 -70 16
-105 17 -160 4z m140 -175 c97 -19 95 -127 -3 -174 -145 -70 -274 -184 -324
-287 -51 -102 -64 -178 -57 -328 6 -147 31 -270 95 -466 63 -193 82 -208 204
-159 41 16 101 37 133 45 134 37 425 27 409 -14 -37 -94 -45 -233 -20 -338 17
-71 60 -171 106 -246 16 -27 28 -51 25 -54 -8 -8 -145 23 -207 46 -78 30 -163
87 -246 165 -101 95 -180 126 -230 91 -12 -8 -49 -68 -83 -132 -118 -224 -277
-438 -340 -458 -28 -9 -44 13 -64 85 -23 83 -35 171 -42 315 l-6 130 78 75
c43 41 97 94 121 116 24 23 43 51 43 62 0 11 -23 71 -51 134 -106 234 -156
407 -166 573 -19 333 148 634 441 791 62 34 114 42 184 28z m721 -1669 c342
-298 647 -799 832 -1369 45 -137 112 -404 130 -514 10 -62 16 -75 36 -83 12
-5 23 -12 23 -17 0 -5 33 -22 73 -37 128 -50 277 -123 401 -197 140 -84 262
-194 332 -300 25 -37 52 -68 60 -68 8 0 17 -6 20 -13 3 -10 71 -12 307 -12
253 0 314 -3 375 -18 149 -35 212 -79 212 -145 0 -29 -5 -32 -110 -77 -282
-118 -588 -195 -910 -226 -137 -13 -423 -7 -555 11 -717 99 -1359 424 -2040
1032 -304 272 -490 499 -659 807 -113 204 -151 388 -123 581 9 58 26 137 38
175 l22 70 22 -111 c43 -215 112 -304 235 -304 80 1 131 28 225 123 83 83 177
217 256 363 l44 81 80 -69 c96 -83 241 -158 365 -188 58 -14 134 -23 237 -27
l151 -6 26 26 c19 19 26 37 26 64 0 32 -10 50 -64 115 -115 138 -175 258 -190
382 -9 70 -16 72 123 -49z"/>
<path d="M849 1741 c-62 -62 -39 -103 172 -303 180 -171 288 -263 458 -391
117 -89 138 -102 173 -102 67 0 106 65 77 127 -6 13 -56 57 -112 98 -166 122
-329 263 -508 437 -145 141 -172 163 -199 163 -22 0 -41 -9 -61 -29z"/>
<path d="M2084 826 c-57 -25 -66 -105 -18 -147 66 -57 563 -239 653 -239 46 0
81 38 81 88 0 48 -26 78 -83 92 -129 33 -306 97 -463 166 -67 30 -126 54 -130
54 -5 -1 -23 -7 -40 -14z"/>
<path d="M2605 4696 c-342 -51 -606 -192 -778 -419 -67 -88 -126 -196 -162
-298 -26 -73 -26 -78 -10 -108 9 -18 26 -36 38 -40 117 -46 169 -72 267 -137
138 -90 149 -90 224 -9 51 54 124 96 195 110 l34 7 -47 -65 c-66 -92 -100
-171 -100 -234 -1 -51 0 -52 74 -130 42 -43 93 -99 113 -124 36 -45 57 -58
122 -76 17 -4 165 -8 330 -8 338 -1 360 -5 628 -97 113 -39 130 -42 232 -42
124 -1 175 12 269 69 l57 34 -6 -32 c-11 -51 -52 -129 -91 -175 -115 -134
-324 -188 -629 -161 -82 7 -172 12 -200 11 -153 -8 -296 -156 -252 -261 44
-105 106 -262 122 -304 26 -72 48 -82 175 -81 105 0 209 17 329 54 36 11 67
17 70 15 2 -3 -13 -40 -34 -82 -66 -133 -221 -263 -315 -263 -42 0 -80 -39
-80 -82 0 -45 61 -147 132 -219 84 -85 100 -92 203 -79 420 52 788 287 947
605 104 207 147 513 148 1039 0 208 16 345 56 484 67 231 194 443 365 612 83
81 101 118 79 160 -23 42 -56 47 -217 33 -244 -21 -353 -49 -480 -124 -65 -39
-219 -188 -308 -299 -114 -142 -237 -212 -375 -214 -96 -1 -172 33 -216 96
-25 36 -29 50 -29 112 0 53 6 82 23 116 38 77 108 156 207 235 90 72 95 78 95
114 0 26 -7 44 -23 59 -45 43 -377 143 -602 183 -153 27 -449 34 -580 15z
m555 -185 c94 -16 216 -46 363 -88 25 -8 22 -14 -29 -63 -64 -63 -138 -176
-163 -251 -70 -207 30 -416 236 -491 82 -30 222 -30 318 0 138 43 263 137 381
288 135 173 266 266 422 299 131 27 130 28 54 -74 -125 -167 -224 -388 -271
-607 -18 -81 -23 -155 -31 -404 -5 -168 -12 -354 -15 -415 -12 -229 -54 -424
-119 -553 -121 -241 -399 -432 -723 -497 -104 -21 -130 -18 -160 21 l-24 32
55 31 c75 42 175 138 226 216 77 118 169 360 156 410 -9 37 -42 65 -75 65 -16
0 -69 -15 -118 -34 -106 -40 -260 -81 -365 -96 -75 -11 -98 -9 -98 10 0 5 -23
62 -50 126 -54 126 -54 132 1 154 25 11 64 11 204 0 433 -32 687 54 837 284
51 79 85 190 99 326 14 135 5 181 -41 205 -49 25 -67 18 -143 -53 -179 -169
-289 -194 -512 -117 -262 90 -390 109 -666 101 -305 -9 -289 -12 -390 96 l-83
90 24 45 c27 51 69 108 147 201 41 48 53 70 53 96 0 67 -85 106 -228 106 -111
0 -217 -37 -309 -107 l-44 -34 -82 50 c-45 27 -99 57 -119 67 l-37 17 14 35
c24 55 83 147 136 211 134 161 383 285 644 320 111 15 393 6 525 -18z"/>
</g>
</svg>
